<svg class="rich-terminal" viewBox="0 0 994 635.5999999999999" xmlns="http://www.w3.org/2000/svg">
    <!-- Generated with Rich https://www.textualize.io -->
    <style>

    @font-face {
        font-family: "Fira Code";
        src: local("FiraCode-Regular"),
                url("https://cdnjs.cloudflare.com/ajax/libs/firacode/6.2.0/woff2/FiraCode-Regular.woff2") format("woff2"),
                url("https://cdnjs.cloudflare.com/ajax/libs/firacode/6.2.0/woff/FiraCode-Regular.woff") format("woff");
        font-style: normal;
        font-weight: 400;
    }
    @font-face {
        font-family: "Fira Code";
        src: local("FiraCode-Bold"),
                url("https://cdnjs.cloudflare.com/ajax/libs/firacode/6.2.0/woff2/FiraCode-Bold.woff2") format("woff2"),
                url("https://cdnjs.cloudflare.com/ajax/libs/firacode/6.2.0/woff/FiraCode-Bold.woff") format("woff");
        font-style: bold;
        font-weight: 700;
    }

    .terminal-759338906-matrix {
        font-family: Fira Code, monospace;
        font-size: 20px;
        line-height: 24.4px;
        font-variant-east-asian: full-width;
    }

    .terminal-759338906-title {
        font-size: 18px;
        font-weight: bold;
        font-family: arial;
    }

    .terminal-759338906-r1 { fill: #c5c8c6 }
.terminal-759338906-r2 { fill: #00ffff;font-weight: bold }
.terminal-759338906-r3 { fill: #c9d1d9 }
.terminal-759338906-r4 { fill: #898f97 }
.terminal-759338906-r5 { fill: #ffff00;font-weight: bold }
.terminal-759338906-r6 { fill: #ffffff }
.terminal-759338906-r7 { fill: #00ff00 }
.terminal-759338906-r8 { fill: #21262d }
.terminal-759338906-r9 { fill: #e3b341;font-weight: bold }
.terminal-759338906-r10 { fill: #e0e0e0;font-weight: bold }
.terminal-759338906-r11 { fill: #272727 }
.terminal-759338906-r12 { fill: #ddedf9;font-weight: bold }
.terminal-759338906-r13 { fill: #000000 }
.terminal-759338906-r14 { fill: #00ffff }
.terminal-759338906-r15 { fill: #8b949e }
    </style>

    <defs>
    <clipPath id="terminal-759338906-clip-terminal">
      <rect x="0" y="0" width="975.0" height="584.5999999999999" />
    </clipPath>
    <clipPath id="terminal-759338906-line-0">
    <rect x="0" y="1.5" width="976" height="24.65"/>
            </clipPath>
<clipPath id="terminal-759338906-line-1">
    <rect x="0" y="25.9" width="976" height="24.65"/>
            </clipPath>
<clipPath id="terminal-759338906-line-2">
    <rect x="0" y="50.3" width="976" height="24.65"/>
            </clipPath>
<clipPath id="terminal-759338906-line-3">
    <rect x="0" y="74.7" width="976" height="24.65"/>
            </clipPath>
<clipPath id="terminal-759338906-line-4">
    <rect x="0" y="99.1" width="976" height="24.65"/>
            </clipPath>
<clipPath id="terminal-759338906-line-5">
    <rect x="0" y="123.5" width="976" height="24.65"/>
            </clipPath>
<clipPath id="terminal-759338906-line-6">
    <rect x="0" y="147.9" width="976" height="24.65"/>
            </clipPath>
<clipPath id="terminal-759338906-line-7">
    <rect x="0" y="172.3" width="976" height="24.65"/>
            </clipPath>
<clipPath id="terminal-759338906-line-8">
    <rect x="0" y="196.7" width="976" height="24.65"/>
            </clipPath>
<clipPath id="terminal-759338906-line-9">
    <rect x="0" y="221.1" width="976" height="24.65"/>
            </clipPath>
<clipPath id="terminal-759338906-line-10">
    <rect x="0" y="245.5" width="976" height="24.65"/>
            </clipPath>
<clipPath id="terminal-759338906-line-11">
    <rect x="0" y="269.9" width="976" height="24.65"/>
            </clipPath>
<clipPath id="terminal-759338906-line-12">
    <rect x="0" y="294.3" width="976" height="24.65"/>
            </clipPath>
<clipPath id="terminal-759338906-line-13">
    <rect x="0" y="318.7" width="976" height="24.65"/>
            </clipPath>
<clipPath id="terminal-759338906-line-14">
    <rect x="0" y="343.1" width="976" height="24.65"/>
            </clipPath>
<clipPath id="terminal-759338906-line-15">
    <rect x="0" y="367.5" width="976" height="24.65"/>
            </clipPath>
<clipPath id="terminal-759338906-line-16">
    <rect x="0" y="391.9" width="976" height="24.65"/>
            </clipPath>
<clipPath id="terminal-759338906-line-17">
    <rect x="0" y="416.3" width="976" height="24.65"/>
            </clipPath>
<clipPath id="terminal-759338906-line-18">
    <rect x="0" y="440.7" width="976" height="24.65"/>
            </clipPath>
<clipPath id="terminal-759338906-line-19">
    <rect x="0" y="465.1" width="976" height="24.65"/>
            </clipPath>
<clipPath id="terminal-759338906-line-20">
    <rect x="0" y="489.5" width="976" height="24.65"/>
            </clipPath>
<clipPath id="terminal-759338906-line-21">
    <rect x="0" y="513.9" width="976" height="24.65"/>
            </clipPath>
<clipPath id="terminal-759338906-line-22">
    <rect x="0" y="538.3" width="976" height="24.65"/>
            </clipPath>
    </defs>

    <rect fill="#292929" stroke="rgba(255,255,255,0.35)" stroke-width="1" x="1" y="1" width="992" height="633.6" rx="8"/><text class="terminal-759338906-title" fill="#c5c8c6" text-anchor="middle" x="496" y="27">RugbotTuiApp</text>
            <g transform="translate(26,22)">
            <circle cx="0" cy="0" r="7" fill="#ff5f57"/>
            <circle cx="22" cy="0" r="7" fill="#febc2e"/>
            <circle cx="44" cy="0" r="7" fill="#28c840"/>
            </g>
        
    <g transform="translate(9, 41)" clip-path="url(#terminal-759338906-clip-terminal)">
    <rect fill="#0d1117" x="0" y="1.5" width="12.2" height="24.65" shape-rendering="crispEdges"/><rect fill="#0d1117" x="12.2" y="1.5" width="73.2" height="24.65" shape-rendering="crispEdges"/><rect fill="#0d1117" x="85.4" y="1.5" width="24.4" height="24.65" shape-rendering="crispEdges"/><rect fill="#0d1117" x="109.8" y="1.5" width="12.2" height="24.65" shape-rendering="crispEdges"/><rect fill="#0d1117" x="122" y="1.5" width="24.4" height="24.65" shape-rendering="crispEdges"/><rect fill="#0d1117" x="146.4" y="1.5" width="195.2" height="24.65" shape-rendering="crispEdges"/><rect fill="#0d1117" x="341.6" y="1.5" width="24.4" height="24.65" shape-rendering="crispEdges"/><rect fill="#0d1117" x="366" y="1.5" width="12.2" height="24.65" shape-rendering="crispEdges"/><rect fill="#0d1117" x="378.2" y="1.5" width="24.4" height="24.65" shape-rendering="crispEdges"/><rect fill="#0d1117" x="402.6" y="1.5" width="97.6" height="24.65" shape-rendering="crispEdges"/><rect fill="#0d1117" x="500.2" y="1.5" width="12.2" height="24.65" shape-rendering="crispEdges"/><rect fill="#0d1117" x="512.4" y="1.5" width="97.6" height="24.65" shape-rendering="crispEdges"/><rect fill="#0d1117" x="610" y="1.5" width="24.4" height="24.65" shape-rendering="crispEdges"/><rect fill="#0d1117" x="634.4" y="1.5" width="12.2" height="24.65" shape-rendering="crispEdges"/><rect fill="#0d1117" x="646.6" y="1.5" width="24.4" height="24.65" shape-rendering="crispEdges"/><rect fill="#0d1117" x="671" y="1.5" width="122" height="24.65" shape-rendering="crispEdges"/><rect fill="#0d1117" x="793" y="1.5" width="12.2" height="24.65" shape-rendering="crispEdges"/><rect fill="#0d1117" x="805.2" y="1.5" width="73.2" height="24.65" shape-rendering="crispEdges"/><rect fill="#0d1117" x="878.4" y="1.5" width="24.4" height="24.65" shape-rendering="crispEdges"/><rect fill="#0d1117" x="902.8" y="1.5" width="12.2" height="24.65" shape-rendering="crispEdges"/><rect fill="#0d1117" x="915" y="1.5" width="48.8" height="24.65" shape-rendering="crispEdges"/><rect fill="#0d1117" x="963.8" y="1.5" width="12.2" height="24.65" shape-rendering="crispEdges"/><rect fill="#0d1117" x="0" y="25.9" width="976" height="24.65" shape-rendering="crispEdges"/><rect fill="#0d1117" x="0" y="50.3" width="12.2" height="24.65" shape-rendering="crispEdges"/><rect fill="#0d1117" x="12.2" y="50.3" width="12.2" height="24.65" shape-rendering="crispEdges"/><rect fill="#0d1117" x="24.4" y="50.3" width="927.2" height="24.65" shape-rendering="crispEdges"/><rect fill="#0d1117" x="951.6" y="50.3" width="12.2" height="24.65" shape-rendering="crispEdges"/><rect fill="#0d1117" x="963.8" y="50.3" width="12.2" height="24.65" shape-rendering="crispEdges"/><rect fill="#0d1117" x="0" y="74.7" width="12.2" height="24.65" shape-rendering="crispEdges"/><rect fill="#0d1117" x="12.2" y="74.7" width="12.2" height="24.65" shape-rendering="crispEdges"/><rect fill="#161b22" x="24.4" y="74.7" width="12.2" height="24.65" shape-rendering="crispEdges"/><rect fill="#161b22" x="36.6" y="74.7" width="85.4" height="24.65" shape-rendering="crispEdges"/><rect fill="#161b22" x="122" y="74.7" width="817.4" height="24.65" shape-rendering="crispEdges"/><rect fill="#161b22" x="939.4" y="74.7" width="12.2" height="24.65" shape-rendering="crispEdges"/><rect fill="#0d1117" x="951.6" y="74.7" width="12.2" height="24.65" shape-rendering="crispEdges"/><rect fill="#0d1117" x="963.8" y="74.7" width="12.2" height="24.65" shape-rendering="crispEdges"/><rect fill="#0d1117" x="0" y="99.1" width="12.2" height="24.65" shape-rendering="crispEdges"/><rect fill="#0d1117" x="12.2" y="99.1" width="12.2" height="24.65" shape-rendering="crispEdges"/><rect fill="#2d3740" x="24.4" y="99.1" width="195.2" height="24.65" shape-rendering="crispEdges"/><rect fill="#2d3740" x="219.6" y="99.1" width="170.8" height="24.65" shape-rendering="crispEdges"/><rect fill="#2d3740" x="390.4" y="99.1" width="109.8" height="24.65" shape-rendering="crispEdges"/><rect fill="#2d3740" x="500.2" y="99.1" width="427" height="24.65" shape-rendering="crispEdges"/><rect fill="#003054" x="927.2" y="99.1" width="24.4" height="24.65" shape-rendering="crispEdges"/><rect fill="#0d1117" x="951.6" y="99.1" width="12.2" height="24.65" shape-rendering="crispEdges"/><rect fill="#0d1117" x="963.8" y="99.1" width="12.2" height="24.65" shape-rendering="crispEdges"/><rect fill="#0d1117" x="0" y="123.5" width="12.2" height="24.65" shape-rendering="crispEdges"/><rect fill="#0d1117" x="12.2" y="123.5" width="12.2" height="24.65" shape-rendering="crispEdges"/><rect fill="#0178d4" x="24.4" y="123.5" width="195.2" height="24.65" shape-rendering="crispEdges"/><rect fill="#0178d4" x="219.6" y="123.5" width="170.8" height="24.65" shape-rendering="crispEdges"/><rect fill="#0178d4" x="390.4" y="123.5" width="109.8" height="24.65" shape-rendering="crispEdges"/><rect fill="#0178d4" x="500.2" y="123.5" width="427" height="24.65" shape-rendering="crispEdges"/><rect fill="#003054" x="927.2" y="123.5" width="24.4" height="24.65" shape-rendering="crispEdges"/><rect fill="#0d1117" x="951.6" y="123.5" width="12.2" height="24.65" shape-rendering="crispEdges"/><rect fill="#0d1117" x="963.8" y="123.5" width="12.2" height="24.65" shape-rendering="crispEdges"/><rect fill="#0d1117" x="0" y="147.9" width="12.2" height="24.65" shape-rendering="crispEdges"/><rect fill="#0d1117" x="12.2" y="147.9" width="12.2" height="24.65" shape-rendering="crispEdges"/><rect fill="#161b22" x="24.4" y="147.9" width="927.2" height="24.65" shape-rendering="crispEdges"/><rect fill="#0d1117" x="951.6" y="147.9" width="12.2" height="24.65" shape-rendering="crispEdges"/><rect fill="#0d1117" x="963.8" y="147.9" width="12.2" height="24.65" shape-rendering="crispEdges"/><rect fill="#0d1117" x="0" y="172.3" width="12.2" height="24.65" shape-rendering="crispEdges"/><rect fill="#0d1117" x="12.2" y="172.3" width="12.2" height="24.65" shape-rendering="crispEdges"/><rect fill="#0d1117" x="24.4" y="172.3" width="927.2" height="24.65" shape-rendering="crispEdges"/><rect fill="#0d1117" x="951.6" y="172.3" width="12.2" height="24.65" shape-rendering="crispEdges"/><rect fill="#0d1117" x="963.8" y="172.3" width="12.2" height="24.65" shape-rendering="crispEdges"/><rect fill="#0d1117" x="0" y="196.7" width="12.2" height="24.65" shape-rendering="crispEdges"/><rect fill="#0d1117" x="12.2" y="196.7" width="12.2" height="24.65" shape-rendering="crispEdges"/><rect fill="#0d1117" x="24.4" y="196.7" width="927.2" height="24.65" shape-rendering="crispEdges"/><rect fill="#0d1117" x="951.6" y="196.7" width="12.2" height="24.65" shape-rendering="crispEdges"/><rect fill="#0d1117" x="963.8" y="196.7" width="12.2" height="24.65" shape-rendering="crispEdges"/><rect fill="#0d1117" x="0" y="221.1" width="12.2" height="24.65" shape-rendering="crispEdges"/><rect fill="#0d1117" x="12.2" y="221.1" width="12.2" height="24.65" shape-rendering="crispEdges"/><rect fill="#161b22" x="24.4" y="221.1" width="12.2" height="24.65" shape-rendering="crispEdges"/><rect fill="#161b22" x="36.6" y="221.1" width="158.6" height="24.65" shape-rendering="crispEdges"/><rect fill="#161b22" x="195.2" y="221.1" width="744.2" height="24.65" shape-rendering="crispEdges"/><rect fill="#161b22" x="939.4" y="221.1" width="12.2" height="24.65" shape-rendering="crispEdges"/><rect fill="#0d1117" x="951.6" y="221.1" width="12.2" height="24.65" shape-rendering="crispEdges"/><rect fill="#0d1117" x="963.8" y="221.1" width="12.2" height="24.65" shape-rendering="crispEdges"/><rect fill="#0d1117" x="0" y="245.5" width="12.2" height="24.65" shape-rendering="crispEdges"/><rect fill="#0d1117" x="12.2" y="245.5" width="12.2" height="24.65" shape-rendering="crispEdges"/><rect fill="#0d1117" x="24.4" y="245.5" width="927.2" height="24.65" shape-rendering="crispEdges"/><rect fill="#0d1117" x="951.6" y="245.5" width="12.2" height="24.65" shape-rendering="crispEdges"/><rect fill="#0d1117" x="963.8" y="245.5" width="12.2" height="24.65" shape-rendering="crispEdges"/><rect fill="#0d1117" x="0" y="269.9" width="12.2" height="24.65" shape-rendering="crispEdges"/><rect fill="#0d1117" x="12.2" y="269.9" width="12.2" height="24.65" shape-rendering="crispEdges"/><rect fill="#0d1117" x="24.4" y="269.9" width="927.2" height="24.65" shape-rendering="crispEdges"/><rect fill="#0d1117" x="951.6" y="269.9" width="12.2" height="24.65" shape-rendering="crispEdges"/><rect fill="#0d1117" x="963.8" y="269.9" width="12.2" height="24.65" shape-rendering="crispEdges"/><rect fill="#0d1117" x="0" y="294.3" width="12.2" height="24.65" shape-rendering="crispEdges"/><rect fill="#0d1117" x="12.2" y="294.3" width="12.2" height="24.65" shape-rendering="crispEdges"/><rect fill="#161b22" x="24.4" y="294.3" width="12.2" height="24.65" shape-rendering="crispEdges"/><rect fill="#161b22" x="36.6" y="294.3" width="109.8" height="24.65" shape-rendering="crispEdges"/><rect fill="#161b22" x="146.4" y="294.3" width="793" height="24.65" shape-rendering="crispEdges"/><rect fill="#161b22" x="939.4" y="294.3" width="12.2" height="24.65" shape-rendering="crispEdges"/><rect fill="#0d1117" x="951.6" y="294.3" width="12.2" height="24.65" shape-rendering="crispEdges"/><rect fill="#0d1117" x="963.8" y="294.3" width="12.2" height="24.65" shape-rendering="crispEdges"/><rect fill="#0d1117" x="0" y="318.7" width="12.2" height="24.65" shape-rendering="crispEdges"/><rect fill="#0d1117" x="12.2" y="318.7" width="12.2" height="24.65" shape-rendering="crispEdges"/><rect fill="#0d1117" x="24.4" y="318.7" width="12.2" height="24.65" shape-rendering="crispEdges"/><rect fill="#0d1117" x="36.6" y="318.7" width="73.2" height="24.65" shape-rendering="crispEdges"/><rect fill="#0d1117" x="109.8" y="318.7" width="85.4" height="24.65" shape-rendering="crispEdges"/><rect fill="#0d1117" x="195.2" y="318.7" width="183" height="24.65" shape-rendering="crispEdges"/><rect fill="#0d1117" x="378.2" y="318.7" width="561.2" height="24.65" shape-rendering="crispEdges"/><rect fill="#0d1117" x="939.4" y="318.7" width="12.2" height="24.65" shape-rendering="crispEdges"/><rect fill="#0d1117" x="951.6" y="318.7" width="12.2" height="24.65" shape-rendering="crispEdges"/><rect fill="#0d1117" x="963.8" y="318.7" width="12.2" height="24.65" shape-rendering="crispEdges"/><rect fill="#0d1117" x="0" y="343.1" width="12.2" height="24.65" shape-rendering="crispEdges"/><rect fill="#0d1117" x="12.2" y="343.1" width="12.2" height="24.65" shape-rendering="crispEdges"/><rect fill="#0d1117" x="24.4" y="343.1" width="12.2" height="24.65" shape-rendering="crispEdges"/><rect fill="#0d1117" x="36.6" y="343.1" width="48.8" height="24.65" shape-rendering="crispEdges"/><rect fill="#0d1117" x="85.4" y="343.1" width="109.8" height="24.65" shape-rendering="crispEdges"/><rect fill="#0d1117" x="195.2" y="343.1" width="85.4" height="24.65" shape-rendering="crispEdges"/><rect fill="#0d1117" x="280.6" y="343.1" width="658.8" height="24.65" shape-rendering="crispEdges"/><rect fill="#0d1117" x="939.4" y="343.1" width="12.2" height="24.65" shape-rendering="crispEdges"/><rect fill="#0d1117" x="951.6" y="343.1" width="12.2" height="24.65" shape-rendering="crispEdges"/><rect fill="#0d1117" x="963.8" y="343.1" width="12.2" height="24.65" shape-rendering="crispEdges"/><rect fill="#0d1117" x="0" y="367.5" width="12.2" height="24.65" shape-rendering="crispEdges"/><rect fill="#0d1117" x="12.2" y="367.5" width="12.2" height="24.65" shape-rendering="crispEdges"/><rect fill="#0d1117" x="24.4" y="367.5" width="12.2" height="24.65" shape-rendering="crispEdges"/><rect fill="#0d1117" x="36.6" y="367.5" width="97.6" height="24.65" shape-rendering="crispEdges"/><rect fill="#0d1117" x="134.2" y="367.5" width="61" height="24.65" shape-rendering="crispEdges"/><rect fill="#0d1117" x="195.2" y="367.5" width="109.8" height="24.65" shape-rendering="crispEdges"/><rect fill="#0d1117" x="305" y="367.5" width="634.4" height="24.65" shape-rendering="crispEdges"/><rect fill="#0d1117" x="939.4" y="367.5" width="12.2" height="24.65" shape-rendering="crispEdges"/><rect fill="#0d1117" x="951.6" y="367.5" width="12.2" height="24.65" shape-rendering="crispEdges"/><rect fill="#0d1117" x="963.8" y="367.5" width="12.2" height="24.65" shape-rendering="crispEdges"/><rect fill="#0d1117" x="0" y="391.9" width="12.2" height="24.65" shape-rendering="crispEdges"/><rect fill="#0d1117" x="12.2" y="391.9" width="12.2" height="24.65" shape-rendering="crispEdges"/><rect fill="#0d1117" x="24.4" y="391.9" width="12.2" height="24.65" shape-rendering="crispEdges"/><rect fill="#0d1117" x="36.6" y="391.9" width="85.4" height="24.65" shape-rendering="crispEdges"/><rect fill="#0d1117" x="122" y="391.9" width="73.2" height="24.65" shape-rendering="crispEdges"/><rect fill="#0d1117" x="195.2" y="391.9" width="244" height="24.65" shape-rendering="crispEdges"/><rect fill="#0d1117" x="439.2" y="391.9" width="500.2" height="24.65" shape-rendering="crispEdges"/><rect fill="#0d1117" x="939.4" y="391.9" width="12.2" height="24.65" shape-rendering="crispEdges"/><rect fill="#0d1117" x="951.6" y="391.9" width="12.2" height="24.65" shape-rendering="crispEdges"/><rect fill="#0d1117" x="963.8" y="391.9" width="12.2" height="24.65" shape-rendering="crispEdges"/><rect fill="#0d1117" x="0" y="416.3" width="12.2" height="24.65" shape-rendering="crispEdges"/><rect fill="#0d1117" x="12.2" y="416.3" width="12.2" height="24.65" shape-rendering="crispEdges"/><rect fill="#0d1117" x="24.4" y="416.3" width="12.2" height="24.65" shape-rendering="crispEdges"/><rect fill="#0d1117" x="36.6" y="416.3" width="97.6" height="24.65" shape-rendering="crispEdges"/><rect fill="#0d1117" x="134.2" y="416.3" width="61" height="24.65" shape-rendering="crispEdges"/><rect fill="#0d1117" x="195.2" y="416.3" width="85.4" height="24.65" shape-rendering="crispEdges"/><rect fill="#0d1117" x="280.6" y="416.3" width="658.8" height="24.65" shape-rendering="crispEdges"/><rect fill="#0d1117" x="939.4" y="416.3" width="12.2" height="24.65" shape-rendering="crispEdges"/><rect fill="#0d1117" x="951.6" y="416.3" width="12.2" height="24.65" shape-rendering="crispEdges"/><rect fill="#0d1117" x="963.8" y="416.3" width="12.2" height="24.65" shape-rendering="crispEdges"/><rect fill="#0d1117" x="0" y="440.7" width="12.2" height="24.65" shape-rendering="crispEdges"/><rect fill="#0d1117" x="12.2" y="440.7" width="12.2" height="24.65" shape-rendering="crispEdges"/><rect fill="#0d1117" x="24.4" y="440.7" width="12.2" height="24.65" shape-rendering="crispEdges"/><rect fill="#0d1117" x="36.6" y="440.7" width="48.8" height="24.65" shape-rendering="crispEdges"/><rect fill="#0d1117" x="85.4" y="440.7" width="109.8" height="24.65" shape-rendering="crispEdges"/><rect fill="#0d1117" x="195.2" y="440.7" width="207.4" height="24.65" shape-rendering="crispEdges"/><rect fill="#0d1117" x="402.6" y="440.7" width="536.8" height="24.65" shape-rendering="crispEdges"/><rect fill="#0d1117" x="939.4" y="440.7" width="12.2" height="24.65" shape-rendering="crispEdges"/><rect fill="#0d1117" x="951.6" y="440.7" width="12.2" height="24.65" shape-rendering="crispEdges"/><rect fill="#0d1117" x="963.8" y="440.7" width="12.2" height="24.65" shape-rendering="crispEdges"/><rect fill="#0d1117" x="0" y="465.1" width="12.2" height="24.65" shape-rendering="crispEdges"/><rect fill="#0d1117" x="12.2" y="465.1" width="12.2" height="24.65" shape-rendering="crispEdges"/><rect fill="#161b22" x="24.4" y="465.1" width="927.2" height="24.65" shape-rendering="crispEdges"/><rect fill="#0d1117" x="951.6" y="465.1" width="12.2" height="24.65" shape-rendering="crispEdges"/><rect fill="#0d1117" x="963.8" y="465.1" width="12.2" height="24.65" shape-rendering="crispEdges"/><rect fill="#0d1117" x="0" y="489.5" width="12.2" height="24.65" shape-rendering="crispEdges"/><rect fill="#0d1117" x="12.2" y="489.5" width="12.2" height="24.65" shape-rendering="crispEdges"/><rect fill="#0d1117" x="24.4" y="489.5" width="927.2" height="24.65" shape-rendering="crispEdges"/><rect fill="#0d1117" x="951.6" y="489.5" width="12.2" height="24.65" shape-rendering="crispEdges"/><rect fill="#0d1117" x="963.8" y="489.5" width="12.2" height="24.65" shape-rendering="crispEdges"/><rect fill="#161b22" x="0" y="513.9" width="976" height="24.65" shape-rendering="crispEdges"/><rect fill="#161b22" x="0" y="538.3" width="12.2" height="24.65" shape-rendering="crispEdges"/><rect fill="#161b22" x="12.2" y="538.3" width="24.4" height="24.65" shape-rendering="crispEdges"/><rect fill="#161b22" x="36.6" y="538.3" width="183" height="24.65" shape-rendering="crispEdges"/><rect fill="#161b22" x="219.6" y="538.3" width="24.4" height="24.65" shape-rendering="crispEdges"/><rect fill="#161b22" x="244" y="538.3" width="207.4" height="24.65" shape-rendering="crispEdges"/><rect fill="#161b22" x="451.4" y="538.3" width="24.4" height="24.65" shape-rendering="crispEdges"/><rect fill="#161b22" x="475.8" y="538.3" width="183" height="24.65" shape-rendering="crispEdges"/><rect fill="#161b22" x="658.8" y="538.3" width="24.4" height="24.65" shape-rendering="crispEdges"/><rect fill="#161b22" x="683.2" y="538.3" width="207.4" height="24.65" shape-rendering="crispEdges"/><rect fill="#161b22" x="890.6" y="538.3" width="12.2" height="24.65" shape-rendering="crispEdges"/><rect fill="#161b22" x="902.8" y="538.3" width="61" height="24.65" shape-rendering="crispEdges"/><rect fill="#161b22" x="963.8" y="538.3" width="12.2" height="24.65" shape-rendering="crispEdges"/><rect fill="#161b22" x="0" y="562.7" width="12.2" height="24.65" shape-rendering="crispEdges"/><rect fill="#161b22" x="12.2" y="562.7" width="61" height="24.65" shape-rendering="crispEdges"/><rect fill="#161b22" x="73.2" y="562.7" width="195.2" height="24.65" shape-rendering="crispEdges"/><rect fill="#161b22" x="268.4" y="562.7" width="61" height="24.65" shape-rendering="crispEdges"/><rect fill="#161b22" x="329.4" y="562.7" width="195.2" height="24.65" shape-rendering="crispEdges"/><rect fill="#161b22" x="524.6" y="562.7" width="12.2" height="24.65" shape-rendering="crispEdges"/><rect fill="#161b22" x="536.8" y="562.7" width="158.6" height="24.65" shape-rendering="crispEdges"/><rect fill="#161b22" x="695.4" y="562.7" width="12.2" height="24.65" shape-rendering="crispEdges"/><rect fill="#161b22" x="707.6" y="562.7" width="170.8" height="24.65" shape-rendering="crispEdges"/><rect fill="#161b22" x="878.4" y="562.7" width="12.2" height="24.65" shape-rendering="crispEdges"/><rect fill="#161b22" x="890.6" y="562.7" width="73.2" height="24.65" shape-rendering="crispEdges"/><rect fill="#161b22" x="963.8" y="562.7" width="12.2" height="24.65" shape-rendering="crispEdges"/>
    <g class="terminal-759338906-matrix">
    <text class="terminal-759338906-r2" x="12.2" y="20" textLength="73.2" clip-path="url(#terminal-759338906-line-0)">RUGBOT</text><text class="terminal-759338906-r4" x="109.8" y="20" textLength="12.2" clip-path="url(#terminal-759338906-line-0)">|</text><text class="terminal-759338906-r5" x="146.4" y="20" textLength="195.2" clip-path="url(#terminal-759338906-line-0)">●&#160;RPC&#160;CONNECTING</text><text class="terminal-759338906-r4" x="366" y="20" textLength="12.2" clip-path="url(#terminal-759338906-line-0)">|</text><text class="terminal-759338906-r4" x="402.6" y="20" textLength="97.6" clip-path="url(#terminal-759338906-line-0)">TARGETS:</text><text class="terminal-759338906-r6" x="512.4" y="20" textLength="97.6" clip-path="url(#terminal-759338906-line-0)">2&#160;active</text><text class="terminal-759338906-r4" x="634.4" y="20" textLength="12.2" clip-path="url(#terminal-759338906-line-0)">|</text><text class="terminal-759338906-r4" x="671" y="20" textLength="122" clip-path="url(#terminal-759338906-line-0)">POSITIONS:</text><text class="terminal-759338906-r6" x="805.2" y="20" textLength="73.2" clip-path="url(#terminal-759338906-line-0)">0&#160;open</text><text class="terminal-759338906-r4" x="902.8" y="20" textLength="12.2" clip-path="url(#terminal-759338906-line-0)">|</text><text class="terminal-759338906-r1" x="976" y="20" textLength="12.2" clip-path="url(#terminal-759338906-line-0)">
</text><text class="terminal-759338906-r1" x="976" y="44.4" textLength="12.2" clip-path="url(#terminal-759338906-line-1)">
</text><text class="terminal-759338906-r8" x="12.2" y="68.8" textLength="12.2" clip-path="url(#terminal-759338906-line-2)">┌</text><text class="terminal-759338906-r8" x="24.4" y="68.8" textLength="927.2" clip-path="url(#terminal-759338906-line-2)">────────────────────────────────────────────────────────────────────────────</text><text class="terminal-759338906-r8" x="951.6" y="68.8" textLength="12.2" clip-path="url(#terminal-759338906-line-2)">┐</text><text class="terminal-759338906-r1" x="976" y="68.8" textLength="12.2" clip-path="url(#terminal-759338906-line-2)">
</text><text class="terminal-759338906-r8" x="12.2" y="93.2" textLength="12.2" clip-path="url(#terminal-759338906-line-3)">│</text><text class="terminal-759338906-r9" x="36.6" y="93.2" textLength="85.4" clip-path="url(#terminal-759338906-line-3)">TARGETS</text><text class="terminal-759338906-r8" x="951.6" y="93.2" textLength="12.2" clip-path="url(#terminal-759338906-line-3)">│</text><text class="terminal-759338906-r1" x="976" y="93.2" textLength="12.2" clip-path="url(#terminal-759338906-line-3)">
</text><text class="terminal-759338906-r8" x="12.2" y="117.6" textLength="12.2" clip-path="url(#terminal-759338906-line-4)">│</text><text class="terminal-759338906-r10" x="24.4" y="117.6" textLength="195.2" clip-path="url(#terminal-759338906-line-4)">&#160;TARGET&#160;&#160;&#160;&#160;&#160;&#160;&#160;&#160;&#160;</text><text class="terminal-759338906-r10" x="219.6" y="117.6" textLength="170.8" clip-path="url(#terminal-759338906-line-4)">&#160;MODE&#160;&#160;&#160;&#160;&#160;&#160;&#160;&#160;&#160;</text><text class="terminal-759338906-r10" x="390.4" y="117.6" textLength="109.8" clip-path="url(#terminal-759338906-line-4)">&#160;BUY&#160;&#160;&#160;&#160;&#160;</text><text class="terminal-759338906-r8" x="951.6" y="117.6" textLength="12.2" clip-path="url(#terminal-759338906-line-4)">│</text><text class="terminal-759338906-r1" x="976" y="117.6" textLength="12.2" clip-path="url(#terminal-759338906-line-4)">
</text><text class="terminal-759338906-r8" x="12.2" y="142" textLength="12.2" clip-path="url(#terminal-759338906-line-5)">│</text><text class="terminal-759338906-r12" x="24.4" y="142" textLength="195.2" clip-path="url(#terminal-759338906-line-5)">&#160;*&#160;83t4Po...LRL&#160;</text><text class="terminal-759338906-r12" x="219.6" y="142" textLength="170.8" clip-path="url(#terminal-759338906-line-5)">&#160;DRY&#160;RUN&#160;&#160;&#160;&#160;&#160;&#160;</text><text class="terminal-759338906-r12" x="390.4" y="142" textLength="109.8" clip-path="url(#terminal-759338906-line-5)">&#160;0.025&#160;&#160;&#160;</text><text class="terminal-759338906-r13" x="927.2" y="142" textLength="24.4" clip-path="url(#terminal-759338906-line-5)">▅▅</text><text class="terminal-759338906-r8" x="951.6" y="142" textLength="12.2" clip-path="url(#terminal-759338906-line-5)">│</text><text class="terminal-759338906-r1" x="976" y="142" textLength="12.2" clip-path="url(#terminal-759338906-line-5)">
</text><text class="terminal-759338906-r8" x="12.2" y="166.4" textLength="12.2" clip-path="url(#terminal-759338906-line-6)">│</text><text class="terminal-759338906-r8" x="24.4" y="166.4" textLength="927.2" clip-path="url(#terminal-759338906-line-6)">────────────────────────────────────────────────────────────────────────────</text><text class="terminal-759338906-r8" x="951.6" y="166.4" textLength="12.2" clip-path="url(#terminal-759338906-line-6)">│</text><text class="terminal-759338906-r1" x="976" y="166.4" textLength="12.2" clip-path="url(#terminal-759338906-line-6)">
</text><text class="terminal-759338906-r8" x="12.2" y="190.8" textLength="12.2" clip-path="url(#terminal-759338906-line-7)">└</text><text class="terminal-759338906-r8" x="24.4" y="190.8" textLength="927.2" clip-path="url(#terminal-759338906-line-7)">────────────────────────────────────────────────────────────────────────────</text><text class="terminal-759338906-r8" x="951.6" y="190.8" textLength="12.2" clip-path="url(#terminal-759338906-line-7)">┘</text><text class="terminal-759338906-r1" x="976" y="190.8" textLength="12.2" clip-path="url(#terminal-759338906-line-7)">
</text><text class="terminal-759338906-r8" x="12.2" y="215.2" textLength="12.2" clip-path="url(#terminal-759338906-line-8)">┌</text><text class="terminal-759338906-r8" x="24.4" y="215.2" textLength="927.2" clip-path="url(#terminal-759338906-line-8)">────────────────────────────────────────────────────────────────────────────</text><text class="terminal-759338906-r8" x="951.6" y="215.2" textLength="12.2" clip-path="url(#terminal-759338906-line-8)">┐</text><text class="terminal-759338906-r1" x="976" y="215.2" textLength="12.2" clip-path="url(#terminal-759338906-line-8)">
</text><text class="terminal-759338906-r8" x="12.2" y="239.6" textLength="12.2" clip-path="url(#terminal-759338906-line-9)">│</text><text class="terminal-759338906-r9" x="36.6" y="239.6" textLength="158.6" clip-path="url(#terminal-759338906-line-9)">LIVE&#160;ACTIVITY</text><text class="terminal-759338906-r8" x="951.6" y="239.6" textLength="12.2" clip-path="url(#terminal-759338906-line-9)">│</text><text class="terminal-759338906-r1" x="976" y="239.6" textLength="12.2" clip-path="url(#terminal-759338906-line-9)">
</text><text class="terminal-759338906-r8" x="12.2" y="264" textLength="12.2" clip-path="url(#terminal-759338906-line-10)">└</text><text class="terminal-759338906-r8" x="24.4" y="264" textLength="927.2" clip-path="url(#terminal-759338906-line-10)">────────────────────────────────────────────────────────────────────────────</text><text class="terminal-759338906-r8" x="951.6" y="264" textLength="12.2" clip-path="url(#terminal-759338906-line-10)">┘</text><text class="terminal-759338906-r1" x="976" y="264" textLength="12.2" clip-path="url(#terminal-759338906-line-10)">
</text><text class="terminal-759338906-r8" x="12.2" y="288.4" textLength="12.2" clip-path="url(#terminal-759338906-line-11)">┌</text><text class="terminal-759338906-r8" x="24.4" y="288.4" textLength="927.2" clip-path="url(#terminal-759338906-line-11)">────────────────────────────────────────────────────────────────────────────</text><text class="terminal-759338906-r8" x="951.6" y="288.4" textLength="12.2" clip-path="url(#terminal-759338906-line-11)">┐</text><text class="terminal-759338906-r1" x="976" y="288.4" textLength="12.2" clip-path="url(#terminal-759338906-line-11)">
</text><text class="terminal-759338906-r8" x="12.2" y="312.8" textLength="12.2" clip-path="url(#terminal-759338906-line-12)">│</text><text class="terminal-759338906-r9" x="36.6" y="312.8" textLength="109.8" clip-path="url(#terminal-759338906-line-12)">EXECUTION</text><text class="terminal-759338906-r8" x="951.6" y="312.8" textLength="12.2" clip-path="url(#terminal-759338906-line-12)">│</text><text class="terminal-759338906-r1" x="976" y="312.8" textLength="12.2" clip-path="url(#terminal-759338906-line-12)">
</text><text class="terminal-759338906-r8" x="12.2" y="337.2" textLength="12.2" clip-path="url(#terminal-759338906-line-13)">│</text><text class="terminal-759338906-r4" x="36.6" y="337.2" textLength="73.2" clip-path="url(#terminal-759338906-line-13)">Target</text><text class="terminal-759338906-r14" x="195.2" y="337.2" textLength="183" clip-path="url(#terminal-759338906-line-13)">83t4Po...LRL8f1</text><text class="terminal-759338906-r8" x="951.6" y="337.2" textLength="12.2" clip-path="url(#terminal-759338906-line-13)">│</text><text class="terminal-759338906-r1" x="976" y="337.2" textLength="12.2" clip-path="url(#terminal-759338906-line-13)">
</text><text class="terminal-759338906-r8" x="12.2" y="361.6" textLength="12.2" clip-path="url(#terminal-759338906-line-14)">│</text><text class="terminal-759338906-r4" x="36.6" y="361.6" textLength="48.8" clip-path="url(#terminal-759338906-line-14)">Mode</text><text class="terminal-759338906-r14" x="195.2" y="361.6" textLength="85.4" clip-path="url(#terminal-759338906-line-14)">DRY&#160;RUN</text><text class="terminal-759338906-r8" x="951.6" y="361.6" textLength="12.2" clip-path="url(#terminal-759338906-line-14)">│</text><text class="terminal-759338906-r1" x="976" y="361.6" textLength="12.2" clip-path="url(#terminal-759338906-line-14)">
</text><text class="terminal-759338906-r8" x="12.2" y="386" textLength="12.2" clip-path="url(#terminal-759338906-line-15)">│</text><text class="terminal-759338906-r4" x="36.6" y="386" textLength="97.6" clip-path="url(#terminal-759338906-line-15)">Buy&#160;size</text><text class="terminal-759338906-r6" x="195.2" y="386" textLength="109.8" clip-path="url(#terminal-759338906-line-15)">0.025&#160;SOL</text><text class="terminal-759338906-r8" x="951.6" y="386" textLength="12.2" clip-path="url(#terminal-759338906-line-15)">│</text><text class="terminal-759338906-r1" x="976" y="386" textLength="12.2" clip-path="url(#terminal-759338906-line-15)">
</text><text class="terminal-759338906-r8" x="12.2" y="410.4" textLength="12.2" clip-path="url(#terminal-759338906-line-16)">│</text><text class="terminal-759338906-r4" x="36.6" y="410.4" textLength="85.4" clip-path="url(#terminal-759338906-line-16)">TP&#160;/&#160;SL</text><text class="terminal-759338906-r6" x="195.2" y="410.4" textLength="244" clip-path="url(#terminal-759338906-line-16)">+10.0000%&#160;/&#160;-3.0000%</text><text class="terminal-759338906-r8" x="951.6" y="410.4" textLength="12.2" clip-path="url(#terminal-759338906-line-16)">│</text><text class="terminal-759338906-r1" x="976" y="410.4" textLength="12.2" clip-path="url(#terminal-759338906-line-16)">
</text><text class="terminal-759338906-r8" x="12.2" y="434.8" textLength="12.2" clip-path="url(#terminal-759338906-line-17)">│</text><text class="terminal-759338906-r4" x="36.6" y="434.8" textLength="97.6" clip-path="url(#terminal-759338906-line-17)">Slippage</text><text class="terminal-759338906-r6" x="195.2" y="434.8" textLength="85.4" clip-path="url(#terminal-759338906-line-17)">500&#160;bps</text><text class="terminal-759338906-r8" x="951.6" y="434.8" textLength="12.2" clip-path="url(#terminal-759338906-line-17)">│</text><text class="terminal-759338906-r1" x="976" y="434.8" textLength="12.2" clip-path="url(#terminal-759338906-line-17)">
</text><text class="terminal-759338906-r8" x="12.2" y="459.2" textLength="12.2" clip-path="url(#terminal-759338906-line-18)">│</text><text class="terminal-759338906-r4" x="36.6" y="459.2" textLength="48.8" clip-path="url(#terminal-759338906-line-18)">Fees</text><text class="terminal-759338906-r6" x="195.2" y="459.2" textLength="207.4" clip-path="url(#terminal-759338906-line-18)">50kµ/CU&#160;+&#160;0.0015◎</text><text class="terminal-759338906-r8" x="951.6" y="459.2" textLength="12.2" clip-path="url(#terminal-759338906-line-18)">│</text><text class="terminal-759338906-r1" x="976" y="459.2" textLength="12.2" clip-path="url(#terminal-759338906-line-18)">
</text><text class="terminal-759338906-r8" x="12.2" y="483.6" textLength="12.2" clip-path="url(#terminal-759338906-line-19)">│</text><text class="terminal-759338906-r8" x="24.4" y="483.6" textLength="927.2" clip-path="url(#terminal-759338906-line-19)">────────────────────────────────────────────────────────────────────────────</text><text class="terminal-759338906-r8" x="951.6" y="483.6" textLength="12.2" clip-path="url(#terminal-759338906-line-19)">│</text><text class="terminal-759338906-r1" x="976" y="483.6" textLength="12.2" clip-path="url(#terminal-759338906-line-19)">
</text><text class="terminal-759338906-r8" x="12.2" y="508" textLength="12.2" clip-path="url(#terminal-759338906-line-20)">└</text><text class="terminal-759338906-r8" x="24.4" y="508" textLength="927.2" clip-path="url(#terminal-759338906-line-20)">────────────────────────────────────────────────────────────────────────────</text><text class="terminal-759338906-r8" x="951.6" y="508" textLength="12.2" clip-path="url(#terminal-759338906-line-20)">┘</text><text class="terminal-759338906-r1" x="976" y="508" textLength="12.2" clip-path="url(#terminal-759338906-line-20)">
</text><text class="terminal-759338906-r8" x="0" y="532.4" textLength="976" clip-path="url(#terminal-759338906-line-21)">────────────────────────────────────────────────────────────────────────────────</text><text class="terminal-759338906-r1" x="976" y="532.4" textLength="12.2" clip-path="url(#terminal-759338906-line-21)">
</text><text class="terminal-759338906-r2" x="12.2" y="556.8" textLength="24.4" clip-path="url(#terminal-759338906-line-22)">F1</text><text class="terminal-759338906-r15" x="36.6" y="556.8" textLength="183" clip-path="url(#terminal-759338906-line-22)">&#160;TRACK&#160;&#160;&#160;&#160;&#160;&#160;&#160;&#160;&#160;</text><text class="terminal-759338906-r2" x="219.6" y="556.8" textLength="24.4" clip-path="url(#terminal-759338906-line-22)">F2</text><text class="terminal-759338906-r15" x="244" y="556.8" textLength="207.4" clip-path="url(#terminal-759338906-line-22)">&#160;BACKTEST&#160;&#160;&#160;&#160;&#160;&#160;&#160;&#160;</text><text class="terminal-759338906-r2" x="451.4" y="556.8" textLength="24.4" clip-path="url(#terminal-759338906-line-22)">F3</text><text class="terminal-759338906-r15" x="475.8" y="556.8" textLength="183" clip-path="url(#terminal-759338906-line-22)">&#160;SNIPER&#160;&#160;&#160;&#160;&#160;&#160;&#160;&#160;</text><text class="terminal-759338906-r2" x="658.8" y="556.8" textLength="24.4" clip-path="url(#terminal-759338906-line-22)">F4</text><text class="terminal-759338906-r15" x="683.2" y="556.8" textLength="207.4" clip-path="url(#terminal-759338906-line-22)">&#160;SETTINGS&#160;&#160;&#160;&#160;&#160;&#160;&#160;&#160;</text><text class="terminal-759338906-r2" x="890.6" y="556.8" textLength="12.2" clip-path="url(#terminal-759338906-line-22)">Q</text><text class="terminal-759338906-r15" x="902.8" y="556.8" textLength="61" clip-path="url(#terminal-759338906-line-22)">&#160;QUIT</text><text class="terminal-759338906-r1" x="976" y="556.8" textLength="12.2" clip-path="url(#terminal-759338906-line-22)">
</text><text class="terminal-759338906-r2" x="12.2" y="581.2" textLength="61" clip-path="url(#terminal-759338906-line-23)">UP/DN</text><text class="terminal-759338906-r15" x="73.2" y="581.2" textLength="195.2" clip-path="url(#terminal-759338906-line-23)">&#160;SELECT&#160;&#160;&#160;&#160;&#160;&#160;&#160;&#160;&#160;</text><text class="terminal-759338906-r2" x="268.4" y="581.2" textLength="61" clip-path="url(#terminal-759338906-line-23)">ENTER</text><text class="terminal-759338906-r15" x="329.4" y="581.2" textLength="195.2" clip-path="url(#terminal-759338906-line-23)">&#160;POLICY&#160;&#160;&#160;&#160;&#160;&#160;&#160;&#160;&#160;</text><text class="terminal-759338906-r2" x="524.6" y="581.2" textLength="12.2" clip-path="url(#terminal-759338906-line-23)">A</text><text class="terminal-759338906-r15" x="536.8" y="581.2" textLength="158.6" clip-path="url(#terminal-759338906-line-23)">&#160;ADD&#160;&#160;&#160;&#160;&#160;&#160;&#160;&#160;&#160;</text><text class="terminal-759338906-r2" x="695.4" y="581.2" textLength="12.2" clip-path="url(#terminal-759338906-line-23)">E</text><text class="terminal-759338906-r15" x="707.6" y="581.2" textLength="170.8" clip-path="url(#terminal-759338906-line-23)">&#160;EDIT&#160;&#160;&#160;&#160;&#160;&#160;&#160;&#160;&#160;</text><text class="terminal-759338906-r2" x="878.4" y="581.2" textLength="12.2" clip-path="url(#terminal-759338906-line-23)">P</text><text class="terminal-759338906-r15" x="890.6" y="581.2" textLength="73.2" clip-path="url(#terminal-759338906-line-23)">&#160;PAUSE</text>
    </g>
    </g>
</svg>
